<svg width="58" height="57" viewBox="0 0 58 57" fill="none" xmlns="http://www.w3.org/2000/svg">
<ellipse cx="29.0912" cy="28.5772" rx="27.9891" ry="27.7992" fill="#FE870C"/>
<ellipse cx="29.0911" cy="28.5772" rx="25.1902" ry="25.0193" fill="#FDF9CB"/>
<path d="M51.1293 28.0212H35.2487C35.067 26.7584 34.4746 25.5844 33.5693 24.6853L45.0884 12.9844C45.5275 12.5383 46.2456 12.5343 46.6897 12.9754C49.9641 16.2276 51.9742 20.539 52.36 25.1379L52.4788 26.5537C52.5451 27.3436 51.9219 28.0212 51.1293 28.0212Z" fill="#FE870C"/>
<path d="M44.893 44.0158L33.2894 32.7471L33.6654 32.3737C34.6791 31.3668 35.2487 30.0012 35.2487 28.5772L51.531 28.5772C52.128 28.5772 52.6172 29.0477 52.6364 29.6403C52.794 34.4899 51.0669 39.2138 47.8133 42.8332L46.8081 43.9513C46.305 44.5111 45.4332 44.5404 44.893 44.0158Z" fill="#FFAB00"/>
<path d="M29.6509 50.4362V34.1371H29.8227C30.9802 34.1371 32.1035 33.7451 33.0096 33.0251L44.7748 44.4507C45.2307 44.8935 45.2348 45.6241 44.7839 46.072C41.5179 49.3159 37.2116 51.3028 32.624 51.6825L31.1382 51.8054C30.3374 51.8717 29.6509 51.2397 29.6509 50.4362Z" fill="#FE870C"/>
<path d="M44.7076 12.809L33.2895 24.4073C32.3744 23.6802 31.2745 23.2189 30.1117 23.0746L29.6509 23.0174L29.6509 6.27171C29.6509 5.55392 30.2599 4.98456 30.9813 5.02798C36.0855 5.33521 40.914 7.43285 44.6059 10.9469L44.6783 11.0158C45.1884 11.5014 45.2016 12.3072 44.7076 12.809Z" fill="#FFAB00"/>
<path d="M13.425 44.4329L25.7323 32.4691C26.6352 33.3659 27.822 33.9387 29.0909 34.085L29.091 50.7255C29.091 51.3895 28.5487 51.9286 27.8807 51.9286L27.6171 51.9286C22.2876 51.9286 17.1801 49.8282 13.4142 46.0879C12.9537 45.6304 12.9585 44.8863 13.425 44.4329Z" fill="#FFAB00"/>
<path d="M6.65052 28.5772H24.0529C24.0529 29.8342 24.4958 31.051 25.3037 32.0139L25.4524 32.1911L13.224 44.0781C12.7155 44.5725 11.9 44.5524 11.4164 44.0337L10.6393 43.2001C7.21944 39.5317 5.38875 34.6599 5.54646 29.6471C5.56522 29.0508 6.05399 28.5772 6.65052 28.5772Z" fill="#FE870C"/>
<path d="M13.1595 13.0502L25.1727 25.2413C24.621 25.9719 24.2541 26.8237 24.1029 27.725L24.0532 28.0212L7.22063 28.0212C6.34597 28.0212 5.66492 27.2654 5.76151 26.4019L5.93904 24.8149C6.43264 20.4025 8.368 16.2739 11.449 13.0608C11.9129 12.5771 12.6885 12.5723 13.1595 13.0502Z" fill="#FFAB00"/>
<path d="M29.3538 6.04858L29.091 23.0174L29.0125 23.0271C27.6238 23.1995 26.3518 23.8913 25.4524 24.9633L13.5366 12.8711C13.012 12.3388 13.0326 11.4779 13.582 10.9712L14.6364 9.99869C18.3397 6.5833 23.2353 4.75746 28.2706 4.91375C28.881 4.93269 29.3633 5.43794 29.3538 6.04858Z" fill="#FE870C"/>
</svg>
