<svg width="278" height="176" viewBox="0 0 278 176" fill="none" xmlns="http://www.w3.org/2000/svg">
<g clip-path="url(#clip0_2054_304)">
<circle cx="139.163" cy="50.6389" r="50" fill="#FE870C"/>
<circle cx="139.163" cy="50.6389" r="45" fill="#FDF9CB"/>
<path d="M178.506 49.6389H150.163C149.838 47.367 148.786 45.2617 147.163 43.6389L167.727 22.6074C168.517 21.799 169.816 21.7917 170.615 22.5911C176.457 28.4332 180.039 36.1568 180.725 44.3901L180.942 46.9908C181.061 48.4163 179.936 49.6389 178.506 49.6389Z" fill="#FE870C"/>
<path d="M167.391 78.4069L146.663 58.1389L147.334 57.4673C149.145 55.6563 150.163 53.2 150.163 50.6389L179.25 50.6389C180.316 50.6389 181.19 51.4851 181.224 52.551C181.506 61.2735 178.421 69.77 172.608 76.2799L170.813 78.2909C169.914 79.2977 168.356 79.3505 167.391 78.4069Z" fill="#FFAB00"/>
<path d="M140.163 89.9816V60.6389H140.461C142.534 60.6389 144.544 59.9335 146.163 58.6389L167.194 79.203C168.002 79.9934 168.01 81.2917 167.21 82.0911C161.368 87.9332 153.645 91.5154 145.411 92.2015L142.811 92.4182C141.385 92.537 140.163 91.4121 140.163 89.9816Z" fill="#FE870C"/>
<path d="M167.06 22.2779L146.663 43.1389C145.028 41.8311 143.063 41.0014 140.986 40.7418L140.163 40.6389L140.163 10.5199C140.163 9.22888 141.251 8.20482 142.54 8.28292C151.658 8.83552 160.283 12.6084 166.879 18.9289L167.008 19.0528C167.919 19.9261 167.943 21.3754 167.06 22.2779Z" fill="#FFAB00"/>
<path d="M111.17 79.164L133.163 57.6389C134.776 59.2523 136.896 60.2821 139.163 60.5452L139.163 90.4849C139.163 91.6745 138.198 92.6389 137.009 92.6389L136.525 92.6389C127.009 92.6389 117.883 88.8587 111.154 82.1299C110.333 81.3091 110.34 79.976 111.17 79.164Z" fill="#FFAB00"/>
<path d="M99.0971 50.6389H130.163C130.163 52.9004 130.956 55.0903 132.404 56.8277L132.663 57.1389L110.836 78.5015C109.919 79.3984 108.444 79.3621 107.572 78.4212L106.225 76.9655C100.098 70.3484 96.8207 61.5859 97.1024 52.5722C97.1361 51.4948 98.0192 50.6389 99.0971 50.6389Z" fill="#FE870C"/>
<path d="M110.7 22.7093L132.163 44.6388C131.177 45.9529 130.522 47.4847 130.252 49.105L130.163 49.6388L100.088 49.6388C98.5277 49.6388 97.3135 48.2822 97.4859 46.7311L97.8042 43.8662C98.6855 35.934 102.143 28.5095 107.647 22.7301C108.475 21.8605 109.86 21.8511 110.7 22.7093Z" fill="#FFAB00"/>
<path d="M139.633 10.0958L139.163 40.6389L139.038 40.6545C136.548 40.9658 134.269 42.2112 132.663 44.1389L111.358 22.3709C110.429 21.4218 110.466 19.8935 111.439 18.9898L113.367 17.1997C119.963 11.0742 128.709 7.79658 137.707 8.07775C138.792 8.11167 139.649 9.01004 139.633 10.0958Z" fill="#FE870C"/>
<path d="M6.0625 123.455H11.2188L20.9062 151.924L30.5 123.455H35.6562L22.875 159.861H18.8438L6.0625 123.455ZM4.09375 123.455H8.75L9.59375 147.299V159.861H4.09375V123.455ZM33 123.455H37.6562V159.861H32.1562V147.299L33 123.455ZM58.7812 128.549L48.4688 159.861H42.8438L55.4688 123.455H59L58.7812 128.549ZM67.1562 159.861L56.9375 128.424L56.75 123.455H60.3438L72.75 159.861H67.1562ZM66.9688 146.392V151.142H48.4688V146.392H66.9688ZM103.969 123.455V159.861H98.4688L83.5625 132.486V159.861H78.0312V123.455H83.5625L98.4688 150.83V123.455H103.969ZM121.344 159.861H114.594L114.625 155.111H121.344C123.573 155.111 125.396 154.611 126.812 153.611C128.25 152.611 129.302 151.184 129.969 149.33C130.656 147.455 131 145.236 131 142.674V140.611C131 138.632 130.802 136.872 130.406 135.33C130.031 133.788 129.458 132.497 128.688 131.455C127.917 130.392 126.948 129.59 125.781 129.049C124.615 128.507 123.25 128.236 121.688 128.236H114.438V123.455H121.688C123.917 123.455 125.938 123.861 127.75 124.674C129.562 125.465 131.115 126.622 132.406 128.142C133.719 129.642 134.729 131.455 135.438 133.58C136.146 135.684 136.5 138.049 136.5 140.674V142.674C136.5 146.153 135.875 149.184 134.625 151.767C133.396 154.351 131.646 156.351 129.375 157.767C127.125 159.163 124.448 159.861 121.344 159.861ZM117.688 123.455V159.861H112.156V123.455H117.688ZM156.594 128.549L146.281 159.861H140.656L153.281 123.455H156.812L156.594 128.549ZM164.969 159.861L154.75 128.424L154.562 123.455H158.156L170.562 159.861H164.969ZM164.781 146.392V151.142H146.281V146.392H164.781ZM175.875 123.455H187.188C189.083 123.455 190.76 123.705 192.219 124.205C193.698 124.684 194.938 125.392 195.938 126.33C196.938 127.267 197.698 128.424 198.219 129.799C198.74 131.174 199 132.757 199 134.549C199 136.34 198.698 137.934 198.094 139.33C197.51 140.705 196.656 141.872 195.531 142.83C194.427 143.767 193.083 144.486 191.5 144.986L189.938 145.83H180L179.938 141.08H187.125C188.542 141.08 189.719 140.809 190.656 140.267C191.594 139.705 192.292 138.955 192.75 138.017C193.229 137.059 193.469 135.986 193.469 134.799C193.469 133.486 193.26 132.34 192.844 131.361C192.427 130.382 191.75 129.622 190.812 129.08C189.896 128.517 188.688 128.236 187.188 128.236H181.375V159.861H175.875V123.455ZM194.469 159.861L186.781 143.642L192.594 143.611L200.406 159.549V159.861H194.469ZM211.5 123.455V159.861H205.969V123.455H211.5ZM245.906 123.455V159.861H240.406L225.5 132.486V159.861H219.969V123.455H225.5L240.406 150.83V123.455H245.906ZM275.438 155.111V159.861H258.375V155.111H275.438ZM259.625 123.455V159.861H254.094V123.455H259.625ZM273.156 138.674V143.392H258.375V138.674H273.156ZM275.219 123.455V128.236H258.375V123.455H275.219Z" fill="#FFAB00"/>
</g>
<defs>
<clipPath id="clip0_2054_304">
<rect width="278" height="175.722" fill="white" transform="translate(0 0.138824)"/>
</clipPath>
</defs>
</svg>
