<svg width="26" height="26" viewBox="0 0 26 26" fill="none" xmlns="http://www.w3.org/2000/svg">
<path d="M10.0208 23.8333L9.58749 20.3666C9.35277 20.2764 9.13159 20.168 8.92395 20.0416C8.71631 19.9152 8.51318 19.7798 8.31457 19.6354L5.09165 20.9895L2.11249 15.8437L4.90207 13.7312C4.88402 13.6048 4.87499 13.4829 4.87499 13.3656V12.6343C4.87499 12.517 4.88402 12.3951 4.90207 12.2687L2.11249 10.1562L5.09165 5.01038L8.31457 6.36454C8.51318 6.2201 8.72082 6.08468 8.93749 5.95829C9.15415 5.8319 9.37082 5.72357 9.58749 5.63329L10.0208 2.16663H15.9792L16.4125 5.63329C16.6472 5.72357 16.8684 5.8319 17.076 5.95829C17.2837 6.08468 17.4868 6.2201 17.6854 6.36454L20.9083 5.01038L23.8875 10.1562L21.0979 12.2687C21.116 12.3951 21.125 12.517 21.125 12.6343V13.3656C21.125 13.4829 21.1069 13.6048 21.0708 13.7312L23.8604 15.8437L20.8812 20.9895L17.6854 19.6354C17.4868 19.7798 17.2792 19.9152 17.0625 20.0416C16.8458 20.168 16.6292 20.2764 16.4125 20.3666L15.9792 23.8333H10.0208ZM13.0542 16.7916C14.1014 16.7916 14.9951 16.4215 15.7354 15.6812C16.4757 14.9409 16.8458 14.0472 16.8458 13C16.8458 11.9527 16.4757 11.059 15.7354 10.3187C14.9951 9.57843 14.1014 9.20829 13.0542 9.20829C11.9889 9.20829 11.0906 9.57843 10.3594 10.3187C9.62811 11.059 9.26249 11.9527 9.26249 13C9.26249 14.0472 9.62811 14.9409 10.3594 15.6812C11.0906 16.4215 11.9889 16.7916 13.0542 16.7916Z" fill="white"/>
</svg>
